# xmcd
#
# Track frame offsets: 
#        150
#        15950
#        31630
#
# Disc length: 630 seconds
#
# Revision: 0
# Processed by: cddbd v1.5.2PL0 Copyright (c) Steve Scherf et al.
# Submitted via: ExactAudioCopy v0.95a4
#
DISCID=0e027403
DTITLE=Vicky Leandros - We're gonna stay together
DYEAR=1900
DGENRE=Pop
TTITLE0=We're gonna stay together
TTITLE1=We're gonna stay together (instrumental)
TTITLE2=We're gonna stay together (special tv-mix)
EXTD=
EXTT0=
EXTT1=
EXTT2=
PLAYORDER=
